<svg xmlns="http://www.w3.org/2000/svg" xmlns:xlink="http://www.w3.org/1999/xlink" version="1.1" xml:space="preserve" viewBox="146.68 235.98 205.83 119.07">
<desc>Created with Fabric.js 3.6.3</desc>
<defs>
</defs>
<g transform="matrix(1.33 0 0 1.33 237.59 293.98)">
<path style="stroke: none; stroke-width: 1; stroke-dasharray: none; stroke-linecap: butt; stroke-dashoffset: 0; stroke-linejoin: miter; stroke-miterlimit: 4; fill: rgb(15,86,132); fill-rule: evenodd; opacity: 1;" transform=" translate(-89.11, -72.1)" d="M 106.65625 31.390625 C 109.464844 28.074219 112.953125 27.128906 116.210938 31.390625 C 129.789063 58.433594 143.371094 85.472656 156.953125 112.515625 C 157.902344 114.4375 157.449219 115.496094 155.605469 115.6875 C 153.417969 115.652344 151.230469 115.617188 149.046875 115.582031 C 147.457031 115.648438 146.597656 114.886719 145.941406 113.886719 C 135.089844 91.679688 124.234375 69.472656 113.378906 47.265625 C 110.78125 41.488281 109.191406 43.347656 107.699219 47.265625 L 82.347656 99.570313 C 77.566406 110.429688 72.496094 116.378906 64.324219 115.601563 C 40.28125 115.601563 20.78125 96.101563 20.78125 72.054688 C 20.78125 48.011719 40.28125 28.511719 64.324219 28.511719 C 64.410156 28.511719 64.496094 28.511719 64.582031 28.511719 C 71.28125 28.511719 77.980469 28.511719 84.679688 28.511719 C 87.230469 28.511719 89.320313 30.597656 89.320313 33.148438 C 89.320313 35.699219 87.230469 37.785156 84.679688 37.785156 C 78.410156 37.785156 72.140625 37.785156 65.871094 37.785156 C 65.871094 37.800781 65.871094 37.8125 65.871094 37.824219 C 65.445313 37.804688 65.019531 37.789063 64.59375 37.785156 C 64.589844 37.785156 64.585938 37.785156 64.582031 37.785156 C 64.496094 37.785156 64.410156 37.785156 64.324219 37.785156 C 45.402344 37.785156 30.054688 53.132813 30.054688 72.054688 C 29.121094 92.847656 51.308594 108.578125 64.324219 106.328125 C 67.605469 106.167969 70.492188 103.058594 73.621094 96.996094 L 106.65625 31.390625" stroke-linecap="round"/>
</g>
<g transform="matrix(1.33 0 0 1.33 289.18 307.61)">
<path style="stroke: none; stroke-width: 1; stroke-dasharray: none; stroke-linecap: butt; stroke-dashoffset: 0; stroke-linejoin: miter; stroke-miterlimit: 4; fill: rgb(15,86,132); fill-rule: evenodd; opacity: 1;" transform=" translate(-127.68, -82.3)" d="M 110.441406 46.632813 L 109.261719 47.210938 L 141.972656 114.75 C 143.125 116.691406 144.429688 117.878906 145.953125 117.964844 L 146.105469 116.792969 C 144.71875 116.480469 143.5625 115.074219 142.636719 112.996094 L 123.605469 73.574219 L 110.441406 46.632813" stroke-linecap="round"/>
</g>
<g transform="matrix(1.33 0 0 1.33 298.56 313.56)">
<path style="stroke: none; stroke-width: 1; stroke-dasharray: none; stroke-linecap: butt; stroke-dashoffset: 0; stroke-linejoin: miter; stroke-miterlimit: 4; fill: rgb(135,196,99); fill-rule: evenodd; opacity: 1;" transform=" translate(-134.77, -86.73)" d="M 94.214844 90.789063 C 123.175781 83.886719 149.78125 73.074219 175.324219 60.480469 C 152.339844 74.292969 129.5 87.703125 111.085938 94.089844 C 112.507813 99 114.351563 103.382813 115.773438 108.292969 C 113.28125 109.855469 110.792969 111.421875 108.304688 112.988281 C 103.605469 105.585938 98.910156 98.1875 94.214844 90.789063" stroke-linecap="round"/>
</g>
</svg>